<mxfile host="app.diagrams.net" agent="Mozilla/5.0 (Windows NT 10.0; Win64; x64) AppleWebKit/537.36 (KHTML, like Gecko) Chrome/138.0.0.0 Safari/537.36" version="28.0.6">
  <diagram name="Page-1" id="YahGzgltlZ3xU5_-woPx">
    <mxGraphModel dx="1426" dy="777" grid="1" gridSize="10" guides="1" tooltips="1" connect="1" arrows="1" fold="1" page="1" pageScale="1" pageWidth="850" pageHeight="1100" math="0" shadow="0">
      <root>
        <mxCell id="0" />
        <mxCell id="1" parent="0" />
        <mxCell id="PmXGJhD5gFg2vQvgqBHU-34" value="" style="rounded=0;whiteSpace=wrap;html=1;fillColor=none;" parent="1" vertex="1">
          <mxGeometry x="125" y="70" width="600" height="610" as="geometry" />
        </mxCell>
        <mxCell id="TxqYAnYjUUvRxx1BMwJk-1" value="Log in" style="swimlane;fontStyle=1;childLayout=stackLayout;horizontal=1;startSize=30;horizontalStack=0;resizeParent=1;resizeParentMax=0;resizeLast=0;collapsible=1;marginBottom=0;whiteSpace=wrap;html=1;fillColor=#ffe6cc;strokeColor=#d79b00;" parent="1" vertex="1">
          <mxGeometry x="200" y="236" width="140" height="90" as="geometry" />
        </mxCell>
        <mxCell id="TxqYAnYjUUvRxx1BMwJk-2" value="Email&amp;nbsp;" style="text;strokeColor=none;fillColor=none;align=left;verticalAlign=middle;spacingLeft=4;spacingRight=4;overflow=hidden;points=[[0,0.5],[1,0.5]];portConstraint=eastwest;rotatable=0;whiteSpace=wrap;html=1;fontSize=10;" parent="TxqYAnYjUUvRxx1BMwJk-1" vertex="1">
          <mxGeometry y="30" width="140" height="20" as="geometry" />
        </mxCell>
        <mxCell id="TxqYAnYjUUvRxx1BMwJk-3" value="Password" style="text;strokeColor=none;fillColor=none;align=left;verticalAlign=middle;spacingLeft=4;spacingRight=4;overflow=hidden;points=[[0,0.5],[1,0.5]];portConstraint=eastwest;rotatable=0;whiteSpace=wrap;html=1;fontSize=10;" parent="TxqYAnYjUUvRxx1BMwJk-1" vertex="1">
          <mxGeometry y="50" width="140" height="20" as="geometry" />
        </mxCell>
        <mxCell id="2a7-lNFfLoI7EOpaWHKa-50" value="Cookie start (1 hour)" style="text;strokeColor=none;fillColor=none;align=left;verticalAlign=middle;spacingLeft=4;spacingRight=4;overflow=hidden;points=[[0,0.5],[1,0.5]];portConstraint=eastwest;rotatable=0;whiteSpace=wrap;html=1;fontSize=10;" parent="TxqYAnYjUUvRxx1BMwJk-1" vertex="1">
          <mxGeometry y="70" width="140" height="20" as="geometry" />
        </mxCell>
        <mxCell id="TxqYAnYjUUvRxx1BMwJk-5" value="Registration" style="swimlane;fontStyle=1;childLayout=stackLayout;horizontal=1;startSize=30;horizontalStack=0;resizeParent=1;resizeParentMax=0;resizeLast=0;collapsible=1;marginBottom=0;whiteSpace=wrap;html=1;fillColor=#ffe6cc;strokeColor=#d79b00;" parent="1" vertex="1">
          <mxGeometry x="390" y="220" width="140" height="170" as="geometry" />
        </mxCell>
        <mxCell id="TxqYAnYjUUvRxx1BMwJk-6" value="Name" style="text;strokeColor=none;fillColor=none;align=left;verticalAlign=middle;spacingLeft=4;spacingRight=4;overflow=hidden;points=[[0,0.5],[1,0.5]];portConstraint=eastwest;rotatable=0;whiteSpace=wrap;html=1;fontSize=10;" parent="TxqYAnYjUUvRxx1BMwJk-5" vertex="1">
          <mxGeometry y="30" width="140" height="20" as="geometry" />
        </mxCell>
        <mxCell id="TxqYAnYjUUvRxx1BMwJk-7" value="Email" style="text;strokeColor=none;fillColor=none;align=left;verticalAlign=middle;spacingLeft=4;spacingRight=4;overflow=hidden;points=[[0,0.5],[1,0.5]];portConstraint=eastwest;rotatable=0;whiteSpace=wrap;html=1;fontSize=10;" parent="TxqYAnYjUUvRxx1BMwJk-5" vertex="1">
          <mxGeometry y="50" width="140" height="20" as="geometry" />
        </mxCell>
        <mxCell id="TxqYAnYjUUvRxx1BMwJk-8" value="Number" style="text;strokeColor=none;fillColor=none;align=left;verticalAlign=middle;spacingLeft=4;spacingRight=4;overflow=hidden;points=[[0,0.5],[1,0.5]];portConstraint=eastwest;rotatable=0;whiteSpace=wrap;html=1;fontSize=10;" parent="TxqYAnYjUUvRxx1BMwJk-5" vertex="1">
          <mxGeometry y="70" width="140" height="20" as="geometry" />
        </mxCell>
        <mxCell id="faOPMM9abR9fU4Dvy9zs-1" value="Profile Photo" style="text;strokeColor=none;fillColor=none;align=left;verticalAlign=middle;spacingLeft=4;spacingRight=4;overflow=hidden;points=[[0,0.5],[1,0.5]];portConstraint=eastwest;rotatable=0;whiteSpace=wrap;html=1;fontSize=10;" vertex="1" parent="TxqYAnYjUUvRxx1BMwJk-5">
          <mxGeometry y="90" width="140" height="20" as="geometry" />
        </mxCell>
        <mxCell id="TxqYAnYjUUvRxx1BMwJk-9" value="Password" style="text;strokeColor=none;fillColor=none;align=left;verticalAlign=middle;spacingLeft=4;spacingRight=4;overflow=hidden;points=[[0,0.5],[1,0.5]];portConstraint=eastwest;rotatable=0;whiteSpace=wrap;html=1;fontSize=10;" parent="TxqYAnYjUUvRxx1BMwJk-5" vertex="1">
          <mxGeometry y="110" width="140" height="20" as="geometry" />
        </mxCell>
        <mxCell id="TxqYAnYjUUvRxx1BMwJk-10" value="Retype password" style="text;strokeColor=none;fillColor=none;align=left;verticalAlign=middle;spacingLeft=4;spacingRight=4;overflow=hidden;points=[[0,0.5],[1,0.5]];portConstraint=eastwest;rotatable=0;whiteSpace=wrap;html=1;fontSize=10;" parent="TxqYAnYjUUvRxx1BMwJk-5" vertex="1">
          <mxGeometry y="130" width="140" height="20" as="geometry" />
        </mxCell>
        <mxCell id="PmXGJhD5gFg2vQvgqBHU-1" value="Question &amp;amp; Answer" style="text;strokeColor=none;fillColor=none;align=left;verticalAlign=middle;spacingLeft=4;spacingRight=4;overflow=hidden;points=[[0,0.5],[1,0.5]];portConstraint=eastwest;rotatable=0;whiteSpace=wrap;html=1;fontSize=10;" parent="TxqYAnYjUUvRxx1BMwJk-5" vertex="1">
          <mxGeometry y="150" width="140" height="20" as="geometry" />
        </mxCell>
        <mxCell id="TxqYAnYjUUvRxx1BMwJk-12" value="Dashboard" style="swimlane;fontStyle=1;childLayout=stackLayout;horizontal=1;startSize=30;horizontalStack=0;resizeParent=1;resizeParentMax=0;resizeLast=0;collapsible=1;marginBottom=0;whiteSpace=wrap;html=1;fillColor=#dae8fc;strokeColor=#6c8ebf;" parent="1" vertex="1">
          <mxGeometry x="200" y="352" width="140" height="150" as="geometry" />
        </mxCell>
        <mxCell id="2a7-lNFfLoI7EOpaWHKa-7" value="menu" style="text;strokeColor=none;fillColor=none;align=left;verticalAlign=middle;spacingLeft=4;spacingRight=4;overflow=hidden;points=[[0,0.5],[1,0.5]];portConstraint=eastwest;rotatable=0;whiteSpace=wrap;html=1;fontSize=10;" parent="TxqYAnYjUUvRxx1BMwJk-12" vertex="1">
          <mxGeometry y="30" width="140" height="30" as="geometry" />
        </mxCell>
        <mxCell id="TxqYAnYjUUvRxx1BMwJk-13" value="user info (autometic)" style="text;strokeColor=none;fillColor=none;align=left;verticalAlign=middle;spacingLeft=4;spacingRight=4;overflow=hidden;points=[[0,0.5],[1,0.5]];portConstraint=eastwest;rotatable=0;whiteSpace=wrap;html=1;fontSize=10;" parent="TxqYAnYjUUvRxx1BMwJk-12" vertex="1">
          <mxGeometry y="60" width="140" height="20" as="geometry" />
        </mxCell>
        <mxCell id="TxqYAnYjUUvRxx1BMwJk-15" value="Search" style="text;strokeColor=none;fillColor=none;align=left;verticalAlign=middle;spacingLeft=4;spacingRight=4;overflow=hidden;points=[[0,0.5],[1,0.5]];portConstraint=eastwest;rotatable=0;whiteSpace=wrap;html=1;fontSize=10;" parent="TxqYAnYjUUvRxx1BMwJk-12" vertex="1">
          <mxGeometry y="80" width="140" height="20" as="geometry" />
        </mxCell>
        <mxCell id="TxqYAnYjUUvRxx1BMwJk-14" value="Product-Table" style="text;strokeColor=none;fillColor=none;align=left;verticalAlign=middle;spacingLeft=4;spacingRight=4;overflow=hidden;points=[[0,0.5],[1,0.5]];portConstraint=eastwest;rotatable=0;whiteSpace=wrap;html=1;fontSize=10;" parent="TxqYAnYjUUvRxx1BMwJk-12" vertex="1">
          <mxGeometry y="100" width="140" height="30" as="geometry" />
        </mxCell>
        <mxCell id="2a7-lNFfLoI7EOpaWHKa-11" value="Product- delete" style="text;strokeColor=none;fillColor=none;align=left;verticalAlign=middle;spacingLeft=4;spacingRight=4;overflow=hidden;points=[[0,0.5],[1,0.5]];portConstraint=eastwest;rotatable=0;whiteSpace=wrap;html=1;fontSize=10;" parent="TxqYAnYjUUvRxx1BMwJk-12" vertex="1">
          <mxGeometry y="130" width="140" height="20" as="geometry" />
        </mxCell>
        <mxCell id="PmXGJhD5gFg2vQvgqBHU-20" value="" style="endArrow=classic;html=1;rounded=0;entryX=0;entryY=0.5;entryDx=0;entryDy=0;exitX=0;exitY=0.5;exitDx=0;exitDy=0;" parent="TxqYAnYjUUvRxx1BMwJk-12" source="TxqYAnYjUUvRxx1BMwJk-14" target="2a7-lNFfLoI7EOpaWHKa-11" edge="1">
          <mxGeometry relative="1" as="geometry">
            <mxPoint x="-10" y="144" as="sourcePoint" />
            <mxPoint x="-40" y="114" as="targetPoint" />
            <Array as="points">
              <mxPoint x="-20" y="115" />
              <mxPoint x="-20" y="140" />
            </Array>
          </mxGeometry>
        </mxCell>
        <mxCell id="PmXGJhD5gFg2vQvgqBHU-21" value="ID" style="edgeLabel;resizable=0;html=1;;align=center;verticalAlign=middle;" parent="PmXGJhD5gFg2vQvgqBHU-20" connectable="0" vertex="1">
          <mxGeometry relative="1" as="geometry" />
        </mxCell>
        <mxCell id="2a7-lNFfLoI7EOpaWHKa-1" value="Product-upload" style="swimlane;fontStyle=1;childLayout=stackLayout;horizontal=1;startSize=30;horizontalStack=0;resizeParent=1;resizeParentMax=0;resizeLast=0;collapsible=1;marginBottom=0;whiteSpace=wrap;html=1;fillColor=#dae8fc;strokeColor=#6c8ebf;" parent="1" vertex="1">
          <mxGeometry x="390" y="410" width="140" height="110" as="geometry" />
        </mxCell>
        <mxCell id="2a7-lNFfLoI7EOpaWHKa-2" value="name" style="text;strokeColor=none;fillColor=none;align=left;verticalAlign=middle;spacingLeft=4;spacingRight=4;overflow=hidden;points=[[0,0.5],[1,0.5]];portConstraint=eastwest;rotatable=0;whiteSpace=wrap;html=1;fontSize=10;" parent="2a7-lNFfLoI7EOpaWHKa-1" vertex="1">
          <mxGeometry y="30" width="140" height="20" as="geometry" />
        </mxCell>
        <mxCell id="2a7-lNFfLoI7EOpaWHKa-3" value="img" style="text;strokeColor=none;fillColor=none;align=left;verticalAlign=middle;spacingLeft=4;spacingRight=4;overflow=hidden;points=[[0,0.5],[1,0.5]];portConstraint=eastwest;rotatable=0;whiteSpace=wrap;html=1;fontSize=10;" parent="2a7-lNFfLoI7EOpaWHKa-1" vertex="1">
          <mxGeometry y="50" width="140" height="20" as="geometry" />
        </mxCell>
        <mxCell id="2a7-lNFfLoI7EOpaWHKa-4" value="price" style="text;strokeColor=none;fillColor=none;align=left;verticalAlign=middle;spacingLeft=4;spacingRight=4;overflow=hidden;points=[[0,0.5],[1,0.5]];portConstraint=eastwest;rotatable=0;whiteSpace=wrap;html=1;fontSize=10;" parent="2a7-lNFfLoI7EOpaWHKa-1" vertex="1">
          <mxGeometry y="70" width="140" height="20" as="geometry" />
        </mxCell>
        <mxCell id="2a7-lNFfLoI7EOpaWHKa-5" value="description" style="text;strokeColor=none;fillColor=none;align=left;verticalAlign=middle;spacingLeft=4;spacingRight=4;overflow=hidden;points=[[0,0.5],[1,0.5]];portConstraint=eastwest;rotatable=0;whiteSpace=wrap;html=1;fontSize=10;" parent="2a7-lNFfLoI7EOpaWHKa-1" vertex="1">
          <mxGeometry y="90" width="140" height="20" as="geometry" />
        </mxCell>
        <mxCell id="2a7-lNFfLoI7EOpaWHKa-17" value="" style="endArrow=classic;html=1;rounded=0;entryX=1;entryY=0;entryDx=0;entryDy=0;entryPerimeter=0;fontColor=light-dark(#ee2b2b, #ededed);labelBackgroundColor=none;fillColor=#e51400;strokeColor=#B20000;exitX=0;exitY=0;exitDx=0;exitDy=0;" parent="1" source="TxqYAnYjUUvRxx1BMwJk-5" target="TxqYAnYjUUvRxx1BMwJk-2" edge="1">
          <mxGeometry relative="1" as="geometry">
            <mxPoint x="380" y="220" as="sourcePoint" />
            <mxPoint x="380" y="226" as="targetPoint" />
            <Array as="points">
              <mxPoint x="380" y="220" />
              <mxPoint x="380" y="266" />
            </Array>
          </mxGeometry>
        </mxCell>
        <mxCell id="2a7-lNFfLoI7EOpaWHKa-18" value="Registered" style="edgeLabel;resizable=0;html=1;;align=center;verticalAlign=middle;rotation=90;" parent="2a7-lNFfLoI7EOpaWHKa-17" connectable="0" vertex="1">
          <mxGeometry relative="1" as="geometry">
            <mxPoint x="-10" as="offset" />
          </mxGeometry>
        </mxCell>
        <mxCell id="2a7-lNFfLoI7EOpaWHKa-20" value="" style="endArrow=classic;html=1;rounded=0;entryX=0.5;entryY=0;entryDx=0;entryDy=0;fontColor=light-dark(#ec3636, #ededed);fillColor=#e51400;strokeColor=#B20000;exitX=0.503;exitY=1.021;exitDx=0;exitDy=0;exitPerimeter=0;" parent="1" source="2a7-lNFfLoI7EOpaWHKa-50" target="TxqYAnYjUUvRxx1BMwJk-12" edge="1">
          <mxGeometry relative="1" as="geometry">
            <mxPoint x="280" y="330" as="sourcePoint" />
            <mxPoint x="320" y="296" as="targetPoint" />
          </mxGeometry>
        </mxCell>
        <mxCell id="2a7-lNFfLoI7EOpaWHKa-21" value="Authorized User" style="edgeLabel;resizable=0;html=1;;align=center;verticalAlign=middle;" parent="2a7-lNFfLoI7EOpaWHKa-20" connectable="0" vertex="1">
          <mxGeometry relative="1" as="geometry" />
        </mxCell>
        <mxCell id="2a7-lNFfLoI7EOpaWHKa-27" value="Feature" style="swimlane;fontStyle=1;childLayout=stackLayout;horizontal=1;startSize=30;horizontalStack=0;resizeParent=1;resizeParentMax=0;resizeLast=0;collapsible=1;marginBottom=0;whiteSpace=wrap;html=1;fillColor=#ffcd28;gradientColor=#ffa500;strokeColor=#d79b00;fontSize=15;" parent="1" vertex="1">
          <mxGeometry x="569" y="170" width="140" height="300" as="geometry" />
        </mxCell>
        <mxCell id="2a7-lNFfLoI7EOpaWHKa-28" value="Insert Data" style="text;strokeColor=#666666;fillColor=#f5f5f5;align=left;verticalAlign=middle;spacingLeft=4;spacingRight=4;overflow=hidden;points=[[0,0.5],[1,0.5]];portConstraint=eastwest;rotatable=0;whiteSpace=wrap;html=1;fontColor=#333333;fontSize=10;" parent="2a7-lNFfLoI7EOpaWHKa-27" vertex="1">
          <mxGeometry y="30" width="140" height="30" as="geometry" />
        </mxCell>
        <mxCell id="2a7-lNFfLoI7EOpaWHKa-29" value="Delete Data" style="text;strokeColor=#6c8ebf;fillColor=#dae8fc;align=left;verticalAlign=middle;spacingLeft=4;spacingRight=4;overflow=hidden;points=[[0,0.5],[1,0.5]];portConstraint=eastwest;rotatable=0;whiteSpace=wrap;html=1;fontSize=10;" parent="2a7-lNFfLoI7EOpaWHKa-27" vertex="1">
          <mxGeometry y="60" width="140" height="30" as="geometry" />
        </mxCell>
        <mxCell id="2a7-lNFfLoI7EOpaWHKa-30" value="Update Data" style="text;strokeColor=#82b366;fillColor=#d5e8d4;align=left;verticalAlign=middle;spacingLeft=4;spacingRight=4;overflow=hidden;points=[[0,0.5],[1,0.5]];portConstraint=eastwest;rotatable=0;whiteSpace=wrap;html=1;fontSize=10;" parent="2a7-lNFfLoI7EOpaWHKa-27" vertex="1">
          <mxGeometry y="90" width="140" height="30" as="geometry" />
        </mxCell>
        <mxCell id="2a7-lNFfLoI7EOpaWHKa-31" value="Search Query" style="text;strokeColor=#d79b00;fillColor=#ffe6cc;align=left;verticalAlign=middle;spacingLeft=4;spacingRight=4;overflow=hidden;points=[[0,0.5],[1,0.5]];portConstraint=eastwest;rotatable=0;whiteSpace=wrap;html=1;fontSize=10;" parent="2a7-lNFfLoI7EOpaWHKa-27" vertex="1">
          <mxGeometry y="120" width="140" height="30" as="geometry" />
        </mxCell>
        <mxCell id="2a7-lNFfLoI7EOpaWHKa-33" value="Data Table from Mysql" style="text;strokeColor=#10739e;fillColor=#b1ddf0;align=left;verticalAlign=middle;spacingLeft=4;spacingRight=4;overflow=hidden;points=[[0,0.5],[1,0.5]];portConstraint=eastwest;rotatable=0;whiteSpace=wrap;html=1;fontSize=10;" parent="2a7-lNFfLoI7EOpaWHKa-27" vertex="1">
          <mxGeometry y="150" width="140" height="30" as="geometry" />
        </mxCell>
        <mxCell id="UhJqCsfPUKtwkS7NIgJE-1" value="Image Managment" style="text;strokeColor=#b85450;fillColor=#f8cecc;align=left;verticalAlign=middle;spacingLeft=4;spacingRight=4;overflow=hidden;points=[[0,0.5],[1,0.5]];portConstraint=eastwest;rotatable=0;whiteSpace=wrap;html=1;fontSize=10;" parent="2a7-lNFfLoI7EOpaWHKa-27" vertex="1">
          <mxGeometry y="180" width="140" height="30" as="geometry" />
        </mxCell>
        <mxCell id="2a7-lNFfLoI7EOpaWHKa-34" value="Cookie Setup" style="text;strokeColor=#56517e;fillColor=#d0cee2;align=left;verticalAlign=middle;spacingLeft=4;spacingRight=4;overflow=hidden;points=[[0,0.5],[1,0.5]];portConstraint=eastwest;rotatable=0;whiteSpace=wrap;html=1;fontSize=10;" parent="2a7-lNFfLoI7EOpaWHKa-27" vertex="1">
          <mxGeometry y="210" width="140" height="30" as="geometry" />
        </mxCell>
        <mxCell id="PmXGJhD5gFg2vQvgqBHU-19" value="Session Setup" style="text;strokeColor=#82b366;fillColor=#d5e8d4;align=left;verticalAlign=middle;spacingLeft=4;spacingRight=4;overflow=hidden;points=[[0,0.5],[1,0.5]];portConstraint=eastwest;rotatable=0;whiteSpace=wrap;html=1;fontSize=10;" parent="2a7-lNFfLoI7EOpaWHKa-27" vertex="1">
          <mxGeometry y="240" width="140" height="30" as="geometry" />
        </mxCell>
        <mxCell id="2a7-lNFfLoI7EOpaWHKa-35" value="Forgot password (security Question)" style="text;align=left;verticalAlign=middle;spacingLeft=4;spacingRight=4;overflow=hidden;points=[[0,0.5],[1,0.5]];portConstraint=eastwest;rotatable=0;whiteSpace=wrap;html=1;fillColor=#f9f7ed;strokeColor=#36393d;fontSize=10;" parent="2a7-lNFfLoI7EOpaWHKa-27" vertex="1">
          <mxGeometry y="270" width="140" height="30" as="geometry" />
        </mxCell>
        <mxCell id="2a7-lNFfLoI7EOpaWHKa-36" value="Forgot Password" style="swimlane;fontStyle=1;childLayout=stackLayout;horizontal=1;startSize=30;horizontalStack=0;resizeParent=1;resizeParentMax=0;resizeLast=0;collapsible=1;marginBottom=0;whiteSpace=wrap;html=1;fillColor=#ffe6cc;strokeColor=#d79b00;" parent="1" vertex="1">
          <mxGeometry x="200" y="116" width="140" height="90" as="geometry" />
        </mxCell>
        <mxCell id="2a7-lNFfLoI7EOpaWHKa-37" value="Email - check" style="text;strokeColor=none;fillColor=none;align=left;verticalAlign=middle;spacingLeft=4;spacingRight=4;overflow=hidden;points=[[0,0.5],[1,0.5]];portConstraint=eastwest;rotatable=0;whiteSpace=wrap;html=1;fontSize=10;" parent="2a7-lNFfLoI7EOpaWHKa-36" vertex="1">
          <mxGeometry y="30" width="140" height="30" as="geometry" />
        </mxCell>
        <mxCell id="2a7-lNFfLoI7EOpaWHKa-38" value="Question &amp;amp; Answer" style="text;strokeColor=none;fillColor=none;align=left;verticalAlign=middle;spacingLeft=4;spacingRight=4;overflow=hidden;points=[[0,0.5],[1,0.5]];portConstraint=eastwest;rotatable=0;whiteSpace=wrap;html=1;fontSize=10;" parent="2a7-lNFfLoI7EOpaWHKa-36" vertex="1">
          <mxGeometry y="60" width="140" height="30" as="geometry" />
        </mxCell>
        <mxCell id="PmXGJhD5gFg2vQvgqBHU-17" value="" style="endArrow=classic;html=1;rounded=0;entryX=0;entryY=0.5;entryDx=0;entryDy=0;exitX=0;exitY=0.5;exitDx=0;exitDy=0;" parent="2a7-lNFfLoI7EOpaWHKa-36" source="2a7-lNFfLoI7EOpaWHKa-37" target="2a7-lNFfLoI7EOpaWHKa-38" edge="1">
          <mxGeometry relative="1" as="geometry">
            <mxPoint x="-50" y="14" as="sourcePoint" />
            <mxPoint y="54" as="targetPoint" />
            <Array as="points">
              <mxPoint x="-20" y="45" />
              <mxPoint x="-20" y="74" />
            </Array>
          </mxGeometry>
        </mxCell>
        <mxCell id="PmXGJhD5gFg2vQvgqBHU-18" value="if email valid" style="edgeLabel;resizable=0;html=1;;align=center;verticalAlign=middle;rotation=90;" parent="PmXGJhD5gFg2vQvgqBHU-17" connectable="0" vertex="1">
          <mxGeometry relative="1" as="geometry" />
        </mxCell>
        <mxCell id="2a7-lNFfLoI7EOpaWHKa-39" value="Reset Password" style="swimlane;fontStyle=1;childLayout=stackLayout;horizontal=1;startSize=30;horizontalStack=0;resizeParent=1;resizeParentMax=0;resizeLast=0;collapsible=1;marginBottom=0;whiteSpace=wrap;html=1;fillColor=#dae8fc;strokeColor=#6c8ebf;" parent="1" vertex="1">
          <mxGeometry x="390" y="120" width="140" height="90" as="geometry">
            <mxRectangle x="410" y="116" width="130" height="30" as="alternateBounds" />
          </mxGeometry>
        </mxCell>
        <mxCell id="2a7-lNFfLoI7EOpaWHKa-40" value="New Password" style="text;strokeColor=none;fillColor=none;align=left;verticalAlign=middle;spacingLeft=4;spacingRight=4;overflow=hidden;points=[[0,0.5],[1,0.5]];portConstraint=eastwest;rotatable=0;whiteSpace=wrap;html=1;fontSize=10;" parent="2a7-lNFfLoI7EOpaWHKa-39" vertex="1">
          <mxGeometry y="30" width="140" height="30" as="geometry" />
        </mxCell>
        <mxCell id="2a7-lNFfLoI7EOpaWHKa-41" value="Retype New Password" style="text;strokeColor=none;fillColor=none;align=left;verticalAlign=middle;spacingLeft=4;spacingRight=4;overflow=hidden;points=[[0,0.5],[1,0.5]];portConstraint=eastwest;rotatable=0;whiteSpace=wrap;html=1;fontSize=10;" parent="2a7-lNFfLoI7EOpaWHKa-39" vertex="1">
          <mxGeometry y="60" width="140" height="30" as="geometry" />
        </mxCell>
        <mxCell id="2a7-lNFfLoI7EOpaWHKa-42" value="" style="endArrow=classic;html=1;rounded=0;exitX=0.5;exitY=0;exitDx=0;exitDy=0;entryX=0.496;entryY=0.972;entryDx=0;entryDy=0;entryPerimeter=0;fillColor=#e51400;strokeColor=#B20000;" parent="1" source="TxqYAnYjUUvRxx1BMwJk-1" target="2a7-lNFfLoI7EOpaWHKa-38" edge="1">
          <mxGeometry relative="1" as="geometry">
            <mxPoint x="90" y="216" as="sourcePoint" />
            <mxPoint x="270" y="206" as="targetPoint" />
          </mxGeometry>
        </mxCell>
        <mxCell id="2a7-lNFfLoI7EOpaWHKa-43" value="Forgot Passwoed" style="edgeLabel;resizable=0;html=1;;align=center;verticalAlign=middle;" parent="2a7-lNFfLoI7EOpaWHKa-42" connectable="0" vertex="1">
          <mxGeometry relative="1" as="geometry" />
        </mxCell>
        <mxCell id="2a7-lNFfLoI7EOpaWHKa-44" value="" style="endArrow=classic;html=1;rounded=0;exitX=1;exitY=0.5;exitDx=0;exitDy=0;entryX=0;entryY=0.25;entryDx=0;entryDy=0;fontColor=light-dark(#ec3636, #ededed);fillColor=#e51400;strokeColor=#B20000;" parent="1" target="2a7-lNFfLoI7EOpaWHKa-39" edge="1">
          <mxGeometry relative="1" as="geometry">
            <mxPoint x="340" y="191.00000000000006" as="sourcePoint" />
            <mxPoint x="410" y="142.5" as="targetPoint" />
            <Array as="points">
              <mxPoint x="370" y="190" />
              <mxPoint x="370" y="143" />
            </Array>
          </mxGeometry>
        </mxCell>
        <mxCell id="2a7-lNFfLoI7EOpaWHKa-45" value="Right ans" style="edgeLabel;resizable=0;html=1;;align=center;verticalAlign=middle;rotation=90;" parent="2a7-lNFfLoI7EOpaWHKa-44" connectable="0" vertex="1">
          <mxGeometry relative="1" as="geometry">
            <mxPoint x="-9" y="24" as="offset" />
          </mxGeometry>
        </mxCell>
        <mxCell id="2a7-lNFfLoI7EOpaWHKa-46" value="&lt;font style=&quot;font-size: 17px;&quot;&gt;PHP Project&lt;/font&gt;" style="text;html=1;align=center;verticalAlign=middle;resizable=0;points=[];autosize=1;strokeColor=#996185;fillColor=#e6d0de;fontStyle=1;fontSize=18;gradientColor=#d5739d;" parent="1" vertex="1">
          <mxGeometry x="577" y="116" width="120" height="40" as="geometry" />
        </mxCell>
        <mxCell id="PmXGJhD5gFg2vQvgqBHU-2" value="Product-update" style="swimlane;fontStyle=1;childLayout=stackLayout;horizontal=1;startSize=30;horizontalStack=0;resizeParent=1;resizeParentMax=0;resizeLast=0;collapsible=1;marginBottom=0;whiteSpace=wrap;html=1;fillColor=#dae8fc;strokeColor=#6c8ebf;" parent="1" vertex="1">
          <mxGeometry x="200" y="527" width="140" height="110" as="geometry" />
        </mxCell>
        <mxCell id="PmXGJhD5gFg2vQvgqBHU-3" value="name" style="text;strokeColor=none;fillColor=none;align=left;verticalAlign=middle;spacingLeft=4;spacingRight=4;overflow=hidden;points=[[0,0.5],[1,0.5]];portConstraint=eastwest;rotatable=0;whiteSpace=wrap;html=1;fontSize=10;" parent="PmXGJhD5gFg2vQvgqBHU-2" vertex="1">
          <mxGeometry y="30" width="140" height="20" as="geometry" />
        </mxCell>
        <mxCell id="PmXGJhD5gFg2vQvgqBHU-4" value="img" style="text;strokeColor=none;fillColor=none;align=left;verticalAlign=middle;spacingLeft=4;spacingRight=4;overflow=hidden;points=[[0,0.5],[1,0.5]];portConstraint=eastwest;rotatable=0;whiteSpace=wrap;html=1;fontSize=10;" parent="PmXGJhD5gFg2vQvgqBHU-2" vertex="1">
          <mxGeometry y="50" width="140" height="20" as="geometry" />
        </mxCell>
        <mxCell id="PmXGJhD5gFg2vQvgqBHU-5" value="price" style="text;strokeColor=none;fillColor=none;align=left;verticalAlign=middle;spacingLeft=4;spacingRight=4;overflow=hidden;points=[[0,0.5],[1,0.5]];portConstraint=eastwest;rotatable=0;whiteSpace=wrap;html=1;fontSize=10;" parent="PmXGJhD5gFg2vQvgqBHU-2" vertex="1">
          <mxGeometry y="70" width="140" height="20" as="geometry" />
        </mxCell>
        <mxCell id="PmXGJhD5gFg2vQvgqBHU-6" value="description" style="text;strokeColor=none;fillColor=none;align=left;verticalAlign=middle;spacingLeft=4;spacingRight=4;overflow=hidden;points=[[0,0.5],[1,0.5]];portConstraint=eastwest;rotatable=0;whiteSpace=wrap;html=1;fontSize=10;" parent="PmXGJhD5gFg2vQvgqBHU-2" vertex="1">
          <mxGeometry y="90" width="140" height="20" as="geometry" />
        </mxCell>
        <mxCell id="PmXGJhD5gFg2vQvgqBHU-11" value="" style="endArrow=classic;html=1;rounded=0;entryX=0.5;entryY=0;entryDx=0;entryDy=0;exitX=1;exitY=0.5;exitDx=0;exitDy=0;" parent="1" source="TxqYAnYjUUvRxx1BMwJk-14" target="PmXGJhD5gFg2vQvgqBHU-2" edge="1">
          <mxGeometry relative="1" as="geometry">
            <mxPoint x="360" y="510" as="sourcePoint" />
            <mxPoint x="480" y="680" as="targetPoint" />
            <Array as="points">
              <mxPoint x="350" y="467" />
              <mxPoint x="350" y="510" />
              <mxPoint x="270" y="510" />
            </Array>
          </mxGeometry>
        </mxCell>
        <mxCell id="PmXGJhD5gFg2vQvgqBHU-12" value="Product Update (ID)" style="edgeLabel;resizable=0;html=1;;align=center;verticalAlign=middle;" parent="PmXGJhD5gFg2vQvgqBHU-11" connectable="0" vertex="1">
          <mxGeometry relative="1" as="geometry">
            <mxPoint x="-6" y="2" as="offset" />
          </mxGeometry>
        </mxCell>
        <mxCell id="PmXGJhD5gFg2vQvgqBHU-13" value="" style="endArrow=classic;html=1;rounded=0;entryX=0.5;entryY=0;entryDx=0;entryDy=0;exitX=0.5;exitY=0;exitDx=0;exitDy=0;fillColor=#f8cecc;gradientColor=#ea6b66;strokeColor=#b85450;" parent="1" source="2a7-lNFfLoI7EOpaWHKa-36" target="2a7-lNFfLoI7EOpaWHKa-39" edge="1">
          <mxGeometry relative="1" as="geometry">
            <mxPoint x="250" y="80" as="sourcePoint" />
            <mxPoint x="400" y="70" as="targetPoint" />
            <Array as="points">
              <mxPoint x="270" y="100" />
              <mxPoint x="460" y="100" />
            </Array>
          </mxGeometry>
        </mxCell>
        <mxCell id="PmXGJhD5gFg2vQvgqBHU-14" value="Sesson" style="edgeLabel;resizable=0;html=1;;align=center;verticalAlign=middle;" parent="PmXGJhD5gFg2vQvgqBHU-13" connectable="0" vertex="1">
          <mxGeometry relative="1" as="geometry" />
        </mxCell>
        <mxCell id="PmXGJhD5gFg2vQvgqBHU-15" value="start" style="edgeLabel;resizable=0;html=1;;align=left;verticalAlign=bottom;" parent="PmXGJhD5gFg2vQvgqBHU-13" connectable="0" vertex="1">
          <mxGeometry x="-1" relative="1" as="geometry" />
        </mxCell>
        <mxCell id="PmXGJhD5gFg2vQvgqBHU-16" value="end" style="edgeLabel;resizable=0;html=1;;align=right;verticalAlign=bottom;" parent="PmXGJhD5gFg2vQvgqBHU-13" connectable="0" vertex="1">
          <mxGeometry x="1" relative="1" as="geometry" />
        </mxCell>
        <mxCell id="PmXGJhD5gFg2vQvgqBHU-22" value="" style="endArrow=classic;html=1;rounded=0;exitX=1;exitY=0.5;exitDx=0;exitDy=0;entryX=0;entryY=0;entryDx=0;entryDy=0;" parent="1" edge="1">
          <mxGeometry relative="1" as="geometry">
            <mxPoint x="340" y="397" as="sourcePoint" />
            <mxPoint x="389" y="440.0000000000001" as="targetPoint" />
            <Array as="points">
              <mxPoint x="370" y="397" />
              <mxPoint x="370" y="440" />
            </Array>
          </mxGeometry>
        </mxCell>
        <mxCell id="PmXGJhD5gFg2vQvgqBHU-23" value="product upload" style="edgeLabel;resizable=0;html=1;;align=center;verticalAlign=middle;rotation=90;" parent="PmXGJhD5gFg2vQvgqBHU-22" connectable="0" vertex="1">
          <mxGeometry relative="1" as="geometry">
            <mxPoint x="-10" as="offset" />
          </mxGeometry>
        </mxCell>
        <mxCell id="PmXGJhD5gFg2vQvgqBHU-24" value="" style="group" parent="1" vertex="1" connectable="0">
          <mxGeometry x="569" y="500" width="140" height="90" as="geometry" />
        </mxCell>
        <mxCell id="2a7-lNFfLoI7EOpaWHKa-48" value="&lt;b&gt;Junaet Islam&lt;/b&gt;&lt;div&gt;+8801736224711&lt;br&gt;&lt;div&gt;junaetpro@gmail.com&lt;/div&gt;&lt;/div&gt;&lt;div&gt;@junaetpro&lt;/div&gt;&lt;div&gt;&lt;br&gt;&lt;/div&gt;" style="text;html=1;align=center;verticalAlign=middle;resizable=0;points=[];autosize=1;strokeColor=#82b366;fillColor=#d5e8d4;" parent="PmXGJhD5gFg2vQvgqBHU-24" vertex="1">
          <mxGeometry width="140" height="90" as="geometry" />
        </mxCell>
        <mxCell id="2a7-lNFfLoI7EOpaWHKa-51" value="" style="shape=image;html=1;verticalAlign=top;verticalLabelPosition=bottom;labelBackgroundColor=#ffffff;imageAspect=0;aspect=fixed;image=https://icons.diagrams.net/icon-cache1/Social_Media-2937/1_Facebook_colored_svg_copy-997.svg" parent="PmXGJhD5gFg2vQvgqBHU-24" vertex="1">
          <mxGeometry x="45.5" y="71" width="15" height="15" as="geometry" />
        </mxCell>
        <mxCell id="2a7-lNFfLoI7EOpaWHKa-53" value="" style="dashed=0;outlineConnect=0;html=1;align=center;labelPosition=center;verticalLabelPosition=bottom;verticalAlign=top;shape=mxgraph.webicons.linkedin;fillColor=#0095DB;gradientColor=#006391" parent="PmXGJhD5gFg2vQvgqBHU-24" vertex="1">
          <mxGeometry x="63.5" y="71" width="15" height="15" as="geometry" />
        </mxCell>
        <mxCell id="2a7-lNFfLoI7EOpaWHKa-54" value="" style="shape=image;html=1;verticalAlign=top;verticalLabelPosition=bottom;labelBackgroundColor=#ffffff;imageAspect=0;aspect=fixed;image=https://icons.diagrams.net/icon-cache1/Picons_Social-2097/github_rounded-685.svg" parent="PmXGJhD5gFg2vQvgqBHU-24" vertex="1">
          <mxGeometry x="81.5" y="70" width="16" height="16" as="geometry" />
        </mxCell>
        <mxCell id="PmXGJhD5gFg2vQvgqBHU-33" value="" style="group" parent="1" vertex="1" connectable="0">
          <mxGeometry x="390" y="546" width="132" height="91" as="geometry" />
        </mxCell>
        <mxCell id="PmXGJhD5gFg2vQvgqBHU-27" value="" style="group" parent="PmXGJhD5gFg2vQvgqBHU-33" vertex="1" connectable="0">
          <mxGeometry x="78" width="54" height="84" as="geometry" />
        </mxCell>
        <mxCell id="PmXGJhD5gFg2vQvgqBHU-25" value="" style="image;html=1;image=img/lib/clip_art/computers/Database_128x128.png" parent="PmXGJhD5gFg2vQvgqBHU-27" vertex="1">
          <mxGeometry width="54" height="59.769230769230774" as="geometry" />
        </mxCell>
        <mxCell id="PmXGJhD5gFg2vQvgqBHU-26" value="Database" style="text;html=1;align=center;verticalAlign=middle;resizable=0;points=[];autosize=1;strokeColor=none;fillColor=none;" parent="PmXGJhD5gFg2vQvgqBHU-27" vertex="1">
          <mxGeometry x="-5.23943661971831" y="59.769230769230774" width="70" height="30" as="geometry" />
        </mxCell>
        <mxCell id="PmXGJhD5gFg2vQvgqBHU-29" value="" style="outlineConnect=0;dashed=0;verticalLabelPosition=bottom;verticalAlign=top;align=center;html=1;shape=mxgraph.aws3.elasticache;fillColor=#f8cecc;strokeColor=#b85450;rotation=90;gradientColor=#ea6b66;" parent="PmXGJhD5gFg2vQvgqBHU-33" vertex="1">
          <mxGeometry x="11" y="6" width="44" height="52" as="geometry" />
        </mxCell>
        <mxCell id="PmXGJhD5gFg2vQvgqBHU-30" value="Cookie" style="text;html=1;align=center;verticalAlign=middle;resizable=0;points=[];autosize=1;strokeColor=none;fillColor=none;" parent="PmXGJhD5gFg2vQvgqBHU-33" vertex="1">
          <mxGeometry y="61" width="60" height="30" as="geometry" />
        </mxCell>
        <mxCell id="PmXGJhD5gFg2vQvgqBHU-35" value="User" style="shape=umlActor;verticalLabelPosition=bottom;verticalAlign=top;html=1;outlineConnect=0;" parent="1" vertex="1">
          <mxGeometry x="140" y="230" width="30" height="60" as="geometry" />
        </mxCell>
        <mxCell id="PmXGJhD5gFg2vQvgqBHU-36" value="" style="shape=flexArrow;endArrow=classic;html=1;rounded=0;entryX=0;entryY=0.25;entryDx=0;entryDy=0;endSize=5.185964912280701;startSize=3;fontSize=9;endWidth=8.421052631578947;width=4.56140350877193;" parent="1" target="TxqYAnYjUUvRxx1BMwJk-1" edge="1">
          <mxGeometry width="50" height="50" relative="1" as="geometry">
            <mxPoint x="170" y="260" as="sourcePoint" />
            <mxPoint x="110" y="290" as="targetPoint" />
          </mxGeometry>
        </mxCell>
      </root>
    </mxGraphModel>
  </diagram>
</mxfile>
